<?xml version="1.0" encoding="UTF-8"?>
<svg version="1.1" xmlns="http://www.w3.org/2000/svg" xmlns:xlink="http://www.w3.org/1999/xlink" x="0" y="0" width="48px" height="48px" viewBox="0 0 48 48" xml:space="preserve">
<style type="text/css">
	.st0{fill:#FF641E;}
	.st1{fill:#FFFFFF;}
</style>
<g>
	<path class="st0" d="M44.4,27.1h-3.5c-0.1,1.5-0.4,2.7-0.8,3.8l3.2,1.8c0.3,0.2,0.4,0.5,0.2,0.8c-0.2,0.3-0.5,0.4-0.8,0.2L39.5,32 C36.4,37,28.5,37,24,37c-4.5,0-12.4,0-15.5-5.1l-3.1,1.8c-0.3,0.2-0.6,0.1-0.8-0.2c-0.2-0.3-0.1-0.6,0.2-0.8L7.9,31 c-0.5-1.1-0.8-2.3-0.8-3.8H3.6c-0.3,0-0.6-0.3-0.6-0.6C3,26.3,3.3,26,3.6,26h3.5c0.2-3.8,1.8-6.1,4.1-7.5c0.7-1.3,2.7-5,3.7-6.8 c0.4-0.7,0.8-0.7,1.2,0c0.7,1.3,1.8,3.5,2.4,4.7c2-0.2,3.9-0.2,5.4-0.2c0,0,0,0,0,0c0,0,0,0,0,0c1.5,0,3.5,0,5.4,0.2 c0.6-1.2,1.7-3.3,2.4-4.7c0.3-0.7,0.8-0.7,1.2,0c1,1.9,3,5.5,3.7,6.8c2.3,1.4,4,3.8,4.1,7.5h3.5c0.3,0,0.6,0.3,0.6,0.6 C45,26.9,44.7,27.1,44.4,27.1z"/>
</g>
<g>
	<path class="st1" d="M16.4,21.9C16.3,23.7,16,25,15.6,25c-0.4,0-0.8-1.3-0.8-3.1h-3.5c0,2.3,1.9,4.2,4.2,4.2c0.1,0,0.1,0,0.2,0 c2.3,0,4.2-1.9,4.2-4.2H16.4z M24.6,30.4c-0.1-0.3-0.3-0.5-0.6-0.5h0c-0.3,0-0.5,0.2-0.6,0.5c-0.2,1.3-1.3,2.3-2.5,2.3 c-1.4,0-2.6-1-2.6-2.3c0-0.4,0.1-0.8,0.3-1.1c0.1-0.2,0.1-0.5-0.1-0.7l0,0c-0.2-0.2-0.6-0.1-0.7,0.1c-0.3,0.5-0.5,1.1-0.5,1.7 c0,1.8,1.6,3.3,3.7,3.3c1.3,0,2.4-0.6,3.1-1.6c0,0,0.1,0,0.1,0c0.7,1.1,1.8,1.6,3.1,1.6c2,0,3.7-1.5,3.7-3.3c0-0.6-0.2-1.1-0.5-1.6 c-0.2-0.2-0.5-0.3-0.7-0.1l0,0c-0.2,0.2-0.3,0.4-0.1,0.7c0.2,0.3,0.3,0.7,0.3,1.1c0,1.3-1.2,2.3-2.6,2.3 C25.9,32.7,24.8,31.6,24.6,30.4z M33.3,21.9c-0.1,1.7-0.4,3.1-0.8,3.1c-0.4,0-0.8-1.3-0.8-3.1h-3.5c0,2.3,1.9,4.2,4.2,4.2 c0.1,0,0.1,0,0.2,0c2.3,0,4.2-1.9,4.2-4.2H33.3z"/>
</g>
</svg>
